<?xml version="1.0" standalone="no"?>
<!DOCTYPE svg PUBLIC "-//W3C//DTD SVG 20010904//EN"
 "http://www.w3.org/TR/2001/REC-SVG-20010904/DTD/svg10.dtd">
<svg version="1.0" xmlns="http://www.w3.org/2000/svg"
 width="272.000000pt" height="191.000000pt" viewBox="0 0 272.000000 191.000000"
 preserveAspectRatio="xMidYMid meet">

<g transform="translate(0.000000,191.000000) scale(0.100000,-0.100000)"
fill="#000000" stroke="none">
<path d="M0 955 l0 -955 1360 0 1360 0 0 955 0 955 -1360 0 -1360 0 0 -955z
m1574 189 c1 -245 -2 -448 -6 -451 -5 -2 -8 202 -8 453 0 252 3 454 7 451 3
-4 7 -208 7 -453z m-27 -247 c-1 -127 -2 -23 -2 233 0 256 1 360 2 232 2 -127
2 -337 0 -465z m-330 661 c-16 -12 -17 -44 -15 -388 l3 -375 137 -51 c76 -28
140 -53 143 -56 5 -5 -307 58 -333 67 -10 3 -12 89 -10 402 l3 398 30 6 c52
11 61 10 42 -3z m273 -174 l0 -167 -97 7 c-158 12 -143 -4 -141 150 l2 131 3
-127 c4 -147 -8 -134 131 -144 l92 -7 0 157 c0 181 16 164 -138 142 -51 -7
-90 -10 -86 -7 7 7 143 28 197 30 l37 1 0 -166z m-240 -215 c0 -24 -4 -38 -10
-34 -17 10 -11 75 7 75 2 0 3 -18 3 -41z m140 -84 c110 -12 100 3 100 -151 0
-124 -1 -135 -17 -130 -10 3 -64 17 -120 32 l-103 27 0 120 0 119 43 -6 c23
-3 67 -8 97 -11z m-1204 -543 c16 -11 23 -37 14 -52 -4 -7 -2 -24 6 -38 21
-41 -1 -66 -60 -70 l-46 -3 0 85 0 86 38 0 c20 0 42 -4 48 -8z m154 -2 c0 -5
-4 -10 -10 -10 -6 0 -10 -28 -10 -65 0 -37 4 -65 10 -65 6 0 10 -4 10 -10 0
-5 -16 -10 -35 -10 -19 0 -35 5 -35 10 0 6 5 10 10 10 6 0 10 28 10 65 0 37
-4 65 -10 65 -5 0 -10 5 -10 10 0 6 16 10 35 10 19 0 35 -4 35 -10z m145 -6
c11 -11 14 -25 10 -41 -3 -13 0 -33 6 -44 8 -16 8 -28 0 -45 -9 -21 -18 -24
-61 -24 l-50 0 0 85 0 85 39 0 c23 0 46 -7 56 -16z m105 -59 l0 -75 35 0 c19
0 35 -4 35 -10 0 -5 -22 -10 -50 -10 l-50 0 0 78 c0 43 3 82 7 85 17 18 23 1
23 -68z m195 65 c3 -5 2 -10 -4 -10 -5 0 -11 -28 -13 -62 -2 -47 1 -66 12 -75
12 -10 9 -12 -22 -13 -21 0 -38 5 -38 10 0 6 5 10 10 10 6 0 10 28 10 65 0 37
-4 65 -10 65 -5 0 -10 5 -10 10 0 6 13 10 29 10 17 0 33 -4 36 -10z m170 -15
c51 -50 18 -145 -50 -145 -48 0 -79 41 -72 95 10 71 75 98 122 50z m175 15 c0
-5 -9 -10 -20 -10 -18 0 -20 -7 -20 -75 0 -60 -3 -75 -15 -75 -12 0 -15 15
-15 75 0 68 -2 75 -20 75 -11 0 -20 5 -20 10 0 6 25 10 55 10 30 0 55 -4 55
-10z m160 0 c0 -5 -17 -10 -38 -10 -35 0 -38 -2 -37 -27 1 -24 7 -28 33 -31
40 -4 42 -22 3 -22 -23 0 -30 -5 -33 -25 -5 -23 -2 -25 33 -25 22 0 39 -4 39
-10 0 -5 -22 -10 -50 -10 l-50 0 0 85 0 85 50 0 c28 0 50 -4 50 -10z m158 -9
c3 -10 -2 -12 -22 -7 -31 8 -66 -22 -66 -57 0 -47 55 -89 76 -56 4 8 9 8 18
-1 16 -16 -11 -31 -54 -28 -29 3 -38 9 -53 40 -16 32 -17 43 -7 73 6 19 19 39
28 45 23 14 74 8 80 -9z m173 -66 c19 -63 23 -85 13 -85 -7 0 -16 9 -19 20 -4
14 -15 20 -35 20 -20 0 -31 -6 -35 -20 -3 -11 -13 -20 -20 -20 -12 0 -12 7 1
48 8 26 19 64 26 85 19 63 40 48 69 -48z m261 68 c22 -19 23 -42 4 -68 -12
-17 -12 -23 0 -47 17 -33 17 -38 1 -38 -7 0 -21 16 -30 35 -9 19 -23 35 -32
35 -10 0 -15 -10 -15 -35 0 -19 -4 -35 -10 -35 -6 0 -10 35 -10 85 l0 85 37 0
c20 0 45 -7 55 -17z m181 4 c24 -17 36 -66 25 -102 -25 -90 -138 -68 -138 27
0 70 63 112 113 75z m195 -6 c3 -10 -2 -12 -22 -7 -32 8 -66 -22 -66 -58 0
-36 32 -70 58 -62 28 9 29 36 2 36 -11 0 -20 5 -20 10 0 6 16 10 35 10 34 0
35 -1 35 -38 l0 -39 -52 1 c-51 1 -54 2 -71 38 -16 32 -17 43 -7 73 6 19 19
39 28 45 23 14 74 8 80 -9z m182 9 c0 -5 -17 -10 -38 -10 -37 0 -38 -1 -34
-30 4 -25 9 -30 33 -30 16 0 29 -4 29 -10 0 -5 -13 -10 -29 -10 -23 0 -30 -5
-33 -25 -5 -23 -2 -25 33 -25 22 0 39 -4 39 -10 0 -5 -22 -10 -50 -10 l-50 0
0 85 0 85 50 0 c28 0 50 -4 50 -10z m151 0 c21 -12 25 -50 8 -78 -9 -14 -8
-26 5 -50 15 -28 15 -32 1 -32 -8 0 -23 16 -32 35 -9 19 -23 35 -30 35 -8 0
-13 -13 -13 -35 0 -24 -5 -35 -15 -35 -12 0 -15 16 -15 85 l0 85 36 0 c19 0
44 -5 55 -10z m-1644 -282 c-2 -13 -4 -5 -4 17 -1 22 1 32 4 23 2 -10 2 -28 0
-40z m131 38 c-7 -8 -15 -12 -17 -11 -5 6 10 25 20 25 5 0 4 -6 -3 -14z m50
-29 c-2 -11 -11 -25 -20 -31 -14 -8 -21 -6 -35 9 -16 17 -17 18 -1 6 36 -27
66 15 36 49 -11 12 -10 12 5 0 10 -7 17 -22 15 -33z m91 24 c-17 -26 -4 -55
21 -48 11 3 18 1 14 -4 -8 -14 -30 -11 -44 6 -13 16 -6 65 10 65 6 0 5 -8 -1
-19z m128 -33 c-2 -13 -4 -5 -4 17 -1 22 1 32 4 23 2 -10 2 -28 0 -40z m126
28 c3 22 4 19 4 -10 l-1 -38 -23 28 c-13 16 -23 34 -23 39 0 6 9 -3 19 -19
l19 -29 5 29z m174 -28 c-2 -13 -4 -5 -4 17 -1 22 1 32 4 23 2 -10 2 -28 0
-40z m126 28 c3 22 4 19 4 -10 l-1 -38 -23 28 c-13 16 -23 34 -23 39 0 6 9 -3
19 -19 l19 -29 5 29z m-346 -38 c-3 -7 -5 -2 -5 12 0 14 2 19 5 13 2 -7 2 -19
0 -25z m300 0 c-3 -7 -5 -2 -5 12 0 14 2 19 5 13 2 -7 2 -19 0 -25z m-740 -14
c-3 -3 -12 -4 -19 -1 -8 3 -5 6 6 6 11 1 17 -2 13 -5z"/>
<path d="M1260 981 l0 -110 43 -11 c23 -6 72 -20 110 -30 l67 -18 0 123 c0
141 9 129 -105 140 -38 4 -80 9 -92 12 -23 5 -23 4 -23 -106z"/>
<path d="M128 505 c3 -20 10 -25 26 -23 32 5 28 42 -5 46 -24 3 -26 0 -21 -23z"/>
<path d="M130 430 c0 -25 4 -30 25 -30 14 0 28 7 31 15 8 20 -13 45 -37 45
-14 0 -19 -7 -19 -30z"/>
<path d="M420 505 c0 -22 4 -26 23 -23 14 2 22 10 22 23 0 13 -8 21 -22 23
-19 3 -23 -1 -23 -23z"/>
<path d="M420 429 c0 -27 3 -30 27 -27 49 5 40 57 -9 58 -13 0 -18 -8 -18 -31z"/>
<path d="M882 514 c-39 -27 -22 -114 23 -114 45 0 60 89 20 116 -18 12 -24 11
-43 -2z"/>
<path d="M1566 478 c-9 -35 -8 -38 15 -38 15 0 19 4 15 16 -3 9 -6 22 -6 30 0
22 -17 16 -24 -8z"/>
<path d="M1810 499 c0 -27 3 -30 27 -27 49 5 40 57 -9 58 -13 0 -18 -8 -18
-31z"/>
<path d="M1996 517 c-22 -16 -26 -78 -7 -101 19 -23 47 -20 65 6 22 31 20 64
-4 88 -24 24 -30 24 -54 7z"/>
<path d="M2528 500 c5 -33 31 -41 52 -15 16 20 -3 45 -34 45 -19 0 -22 -4 -18
-30z"/>
</g>
</svg>
